<svg viewBox="0 0 165.94 87.6" xmlns="http://www.w3.org/2000/svg" xmlns:xlink="http://www.w3.org/1999/xlink"><radialGradient id="a" cx="39.91" cy="16.81" gradientUnits="userSpaceOnUse" r="10.05"><stop offset=".01" stop-color="#231f20"/><stop offset="1" stop-color="#fff"/></radialGradient><text fill="#231f20" font-family="Beyond The Mountains" font-size="28.61322" transform="translate(4.61 66.25)">Li<tspan letter-spacing="-1" x="15.65" y="0">v</tspan><tspan fill="#009444" font-family="Flower In The Window" font-size="55.636822" letter-spacing="-1" x="26.67" y="0">I</tspan><tspan x="35.12" y="0">ngRoom</tspan></text><circle cx="39.91" cy="16.81" fill="url(#a)" r="10.05"/><path d="m77 24.49s-1.63-4.91-5.13-5.94a5 5 0 0 0 -1.3-.2 5.07 5.07 0 0 0 .85-.35c3.19-1.75 3.74-6.9 3.74-6.9s-4.63-2.32-7.82-.57a5.08 5.08 0 0 0 -1.06.78 4.85 4.85 0 0 0 .35-.86c1-3.49-2.24-7.52-2.24-7.52s-4.92 1.62-5.94 5.07a5.05 5.05 0 0 0 -.2 1.3 4.88 4.88 0 0 0 -.36-.86c-1.75-3.15-6.89-3.69-6.89-3.69s-2.32 4.63-.57 7.82a5.05 5.05 0 0 0 .78 1.06 4.88 4.88 0 0 0 -.86-.35c-3.49-1-7.52 2.24-7.52 2.24s1.63 4.91 5.13 5.94a5.07 5.07 0 0 0 1.3.2 4.86 4.86 0 0 0 -.86.36c-3.19 1.75-3.74 6.9-3.74 6.9s4.63 2.32 7.82.57a5 5 0 0 0 1.06-.78 4.93 4.93 0 0 0 -.35.86c-1 3.49 2.24 7.52 2.24 7.52s4.91-1.64 5.94-5.13a5 5 0 0 0 .2-1.3 4.85 4.85 0 0 0 .36.86c1.75 3.19 6.9 3.74 6.9 3.74s2.32-4.63.57-7.82a5 5 0 0 0 -.78-1.06 4.88 4.88 0 0 0 .86.35c3.52 1.02 7.52-2.24 7.52-2.24zm-14.5-.79a12.88 12.88 0 0 0 -1.22 4.89 13.14 13.14 0 0 0 -2.15-4.14 12.88 12.88 0 0 0 -4.34 2.55 13.15 13.15 0 0 0 1.41-4.45 12.9 12.9 0 0 0 -4.89-1.22 13.15 13.15 0 0 0 4.14-2.15 12.88 12.88 0 0 0 -2.59-4.32 13.14 13.14 0 0 0 4.45 1.41 12.88 12.88 0 0 0 1.22-4.89 13.14 13.14 0 0 0 2.15 4.14 12.88 12.88 0 0 0 4.32-2.52 13.15 13.15 0 0 0 -1.41 4.45 12.89 12.89 0 0 0 4.89 1.22 13.15 13.15 0 0 0 -4.14 2.15 12.88 12.88 0 0 0 2.59 4.32 13.14 13.14 0 0 0 -4.44-1.44z" fill="#d8c7ce" transform="translate(-20.13 -2)"/><path d="m77.15 23.57s-1.63-4.91-5.15-5.93a5 5 0 0 0 -1.3-.2 4.88 4.88 0 0 0 .86-.37c3.19-1.75 3.74-6.9 3.74-6.9s-4.61-2.31-7.8-.57a5 5 0 0 0 -1.06.78 4.9 4.9 0 0 0 .35-.86c1.02-3.52-2.24-7.52-2.24-7.52s-4.91 1.64-5.94 5.13a5 5 0 0 0 -.2 1.3 4.9 4.9 0 0 0 -.36-.86c-1.75-3.19-6.9-3.74-6.9-3.74s-2.32 4.63-.57 7.82a5 5 0 0 0 .78 1.05 5 5 0 0 0 -.86-.35c-3.5-1.01-7.5 2.25-7.5 2.25s1.64 4.91 5.13 5.94a5.07 5.07 0 0 0 1.3.2 4.88 4.88 0 0 0 -.86.37c-3.19 1.75-3.74 6.9-3.74 6.9s4.63 2.32 7.82.57a5.08 5.08 0 0 0 1.05-.78 4.87 4.87 0 0 0 -.35.86c-1 3.49 2.24 7.52 2.24 7.52s4.91-1.64 5.93-5.18a5 5 0 0 0 .2-1.3 5 5 0 0 0 .36.86c1.75 3.19 6.9 3.74 6.9 3.74s2.32-4.63.57-7.82a5 5 0 0 0 -.78-1.06 4.82 4.82 0 0 0 .86.35c3.5 1.06 7.52-2.2 7.52-2.2zm-14.5-.79a12.88 12.88 0 0 0 -1.22 4.89 13.12 13.12 0 0 0 -2.15-4.14 12.87 12.87 0 0 0 -4.28 2.59 13.13 13.13 0 0 0 1.41-4.45 12.88 12.88 0 0 0 -4.89-1.22 13.16 13.16 0 0 0 4.14-2.15 12.88 12.88 0 0 0 -2.66-4.3 13.15 13.15 0 0 0 4.45 1.41 12.88 12.88 0 0 0 1.22-4.89 13.15 13.15 0 0 0 2.15 4.14 12.88 12.88 0 0 0 4.32-2.59 13.13 13.13 0 0 0 -1.41 4.45 12.88 12.88 0 0 0 4.89 1.22 13.13 13.13 0 0 0 -4.14 2.15 12.87 12.87 0 0 0 2.59 4.32 13.12 13.12 0 0 0 -4.42-1.43z" fill="#e53c6e" transform="translate(-20.13 -2)"/><g fill="#d1a2b2" opacity=".55"><g transform="translate(-20.13 -2)"><path d="m64.27 10.57c-.1 3.93-4.78 7-4.78 7s-4.52-3.3-4.43-7.23 4.78-7 4.78-7 4.53 3.3 4.43 7.23z"/><path d="m54.14 11.37c3.35 2.05 3.67 7.63 3.67 7.63s-5.12 2.27-8.48.22-3.68-7.64-3.68-7.64 5.13-2.26 8.49-.21z"/><path d="m49.76 20.56c3.45-1.88 8.46.63 8.46.63s-.6 5.57-4.05 7.45-8.46-.64-8.46-.64.6-5.56 4.05-7.44z"/><path d="m55.53 28.94c.1-3.93 4.78-7 4.78-7s4.52 3.3 4.43 7.23-4.78 7-4.78 7-4.53-3.3-4.43-7.23z"/><path d="m65.67 28.13c-3.36-2.05-3.67-7.64-3.67-7.64s5.12-2.27 8.48-.22 3.68 7.64 3.68 7.64-5.16 2.27-8.49.22z"/><path d="m70 18.95c-3.45 1.88-8.46-.63-8.46-.63s.6-5.57 4.05-7.45 8.46.63 8.46.63-.56 5.57-4.05 7.45z"/></g><circle cx="59.9" cy="19.75" r="5.75" transform="matrix(.02460666 -.99969721 .99969721 .02460666 18.55 77.15)"/></g><g fill="#f3b526"><path d="m64.21 9.8c0 3.93-4.6 7.12-4.6 7.12s-4.61-3.19-4.61-7.12 4.6-7.12 4.6-7.12 4.61 3.18 4.61 7.12z" transform="translate(-20.13 -2)"/><path d="m54.1 10.85c3.4 1.97 3.9 7.55 3.9 7.55s-5.06 2.39-8.47.42-3.87-7.55-3.87-7.55 5.03-2.38 8.44-.42z" transform="translate(-20.13 -2)"/><path d="m50 20.14c3.41-2 8.47.42 8.47.42s-.47 5.59-3.92 7.55-8.47-.43-8.47-.43.47-5.57 3.92-7.54z" transform="translate(-20.13 -2)"/><path d="m55.92 28.37c0-3.93 4.6-7.12 4.6-7.12s4.6 3.19 4.6 7.12-4.6 7.12-4.6 7.12-4.6-3.18-4.6-7.12z" transform="translate(-20.13 -2)"/><path d="m66 27.32c-3.41-2-3.87-7.55-3.87-7.55s5.06-2.39 8.47-.42 3.87 7.55 3.87 7.55-5.03 2.39-8.47.42z" transform="translate(-20.13 -2)"/><path d="m70.18 18c-3.41 2-8.47-.43-8.47-.43s.46-5.58 3.87-7.55 8.42.46 8.42.46-.41 5.59-3.82 7.52z" transform="translate(-20.13 -2)"/><circle cx="39.94" cy="17.09" r="5.75"/><path d="m66.92 18.9c-2.69 1.73-7.3.74-7.3.74s.55-5.31 3.24-7 6.9 0 6.9 0-.15 4.53-2.84 6.26z" transform="translate(-20.13 -2)"/><path d="m58.87 12.35c1.73 2.69.74 7.3.74 7.3s-5.31-.55-7-3.25 0-6.9 0-6.9 4.53.16 6.26 2.85z" transform="translate(-20.13 -2)"/><path d="m52.32 20.39c2.69-1.73 7.3-.75 7.3-.75s-.55 5.31-3.25 7-6.9 0-6.9 0 .15-4.51 2.85-6.25z" transform="translate(-20.13 -2)"/><path d="m60.36 27c-1.73-2.69-.74-7.3-.74-7.3s5.31.55 7 3.25 0 6.9 0 6.9-4.53-.21-6.26-2.85z" transform="translate(-20.13 -2)"/></g><path d="m67.33 18.32c-2.69 1.73-7.3.74-7.3.74s.55-5.31 3.24-7 6.9 0 6.9 0-.17 4.53-2.84 6.26z" fill="#fdda81" transform="translate(-20.13 -2)"/><path d="m59.29 11.77c1.73 2.69.74 7.3.74 7.3s-5.31-.55-7-3.24 0-6.9 0-6.9 4.53.14 6.26 2.84z" fill="#fdda81" transform="translate(-20.13 -2)"/><path d="m52.73 19.81c2.69-1.73 7.3-.75 7.3-.75s-.55 5.31-3.25 7-6.9 0-6.9 0 .12-4.52 2.85-6.25z" fill="#fdda81" transform="translate(-20.13 -2)"/><path d="m60.78 26.37c-1.78-2.69-.78-7.3-.78-7.3s5.31.55 7 3.25 0 6.9 0 6.9-4.49-.16-6.22-2.85z" fill="#fdda81" transform="translate(-20.13 -2)"/><text fill="#231f20" font-family="Caviar Dreams" font-size="9.25" font-style="italic" transform="translate(71.98 80.64)">w<tspan x="6.2" y="0">omen</tspan><tspan x="28.86" y="0">s</tspan><tspan x="32.78" y="0">’</tspan><tspan x="33.73" y="0"> center</tspan></text></svg>