<svg xmlns="http://www.w3.org/2000/svg" xmlns:xlink="http://www.w3.org/1999/xlink" viewBox="0 0 79.03 90.41"><defs><radialGradient id="a" cx="39.34" cy="40.8" r="10.05" gradientUnits="userSpaceOnUse"><stop offset="0.01" stop-color="#231f20"/><stop offset="1" stop-color="#fff"/></radialGradient></defs><title>Living Room Final Logo Page (1)</title><g style="isolation:isolate"><circle cx="39.34" cy="40.8" r="10.05" style="fill:url(#a)"/><path d="M73.45,179.81s-1.64-4.91-5.13-5.94a5.06,5.06,0,0,0-1.3-.2,4.88,4.88,0,0,0,.86-0.37c3.19-1.75,3.74-6.9,3.74-6.9s-4.63-2.32-7.82-.57a5,5,0,0,0-1.06.78,4.9,4.9,0,0,0,.35-0.86c1-3.49-2.24-7.52-2.24-7.52s-4.91,1.64-5.94,5.13a5,5,0,0,0-.2,1.3,4.93,4.93,0,0,0-.36-0.86c-1.75-3.19-6.9-3.74-6.9-3.74s-2.32,4.63-.57,7.82a5,5,0,0,0,.78,1.05,5,5,0,0,0-.86-0.35c-3.49-1-7.52,2.24-7.52,2.24s1.64,4.91,5.13,5.94a5.07,5.07,0,0,0,1.3.2,4.89,4.89,0,0,0-.86.37c-3.19,1.75-3.74,6.9-3.74,6.9s4.63,2.32,7.82.57A5.09,5.09,0,0,0,50,184a4.87,4.87,0,0,0-.35.86c-1,3.49,2.24,7.52,2.24,7.52s4.91-1.63,5.94-5.13A5,5,0,0,0,58,186a5,5,0,0,0,.36.86c1.75,3.19,6.9,3.74,6.9,3.74s2.32-4.63.57-7.82a5,5,0,0,0-.78-1.06,4.82,4.82,0,0,0,.86.35C69.43,183.06,73.45,179.81,73.45,179.81ZM59,179a12.88,12.88,0,0,0-1.22,4.89,13.12,13.12,0,0,0-2.15-4.14,12.87,12.87,0,0,0-4.32,2.59,13.13,13.13,0,0,0,1.41-4.45,12.88,12.88,0,0,0-4.89-1.22,13.16,13.16,0,0,0,4.14-2.15,12.88,12.88,0,0,0-2.59-4.32,13.15,13.15,0,0,0,4.45,1.41A12.88,12.88,0,0,0,55,166.73a13.15,13.15,0,0,0,2.15,4.14,12.87,12.87,0,0,0,4.32-2.59,13.13,13.13,0,0,0-1.41,4.45A12.88,12.88,0,0,0,65,174a13.12,13.12,0,0,0-4.14,2.15,12.87,12.87,0,0,0,2.59,4.32A13.12,13.12,0,0,0,59,179Z" transform="translate(-17 -134.24)" style="fill:#e53c6e"/><g style="opacity:0.55;mix-blend-mode:multiply"><path d="M60.57,166.8c-0.1,3.93-4.78,7-4.78,7s-4.52-3.3-4.43-7.23,4.78-7,4.78-7S60.67,162.87,60.57,166.8Z" transform="translate(-17 -134.24)" style="fill:#d1a2b2"/><path d="M50.44,167.61c3.36,2.05,3.68,7.64,3.68,7.64s-5.12,2.27-8.48.22S42,167.82,42,167.82,47.08,165.56,50.44,167.61Z" transform="translate(-17 -134.24)" style="fill:#d1a2b2"/><path d="M46.06,176.79c3.45-1.88,8.46.63,8.46,0.63s-0.6,5.57-4.05,7.45S42,184.24,42,184.24,42.61,178.67,46.06,176.79Z" transform="translate(-17 -134.24)" style="fill:#d1a2b2"/><path d="M51.83,185.17c0.1-3.93,4.78-7,4.78-7s4.52,3.3,4.43,7.23-4.78,7-4.78,7S51.73,189.1,51.83,185.17Z" transform="translate(-17 -134.24)" style="fill:#d1a2b2"/><path d="M62,184.36c-3.36-2-3.68-7.64-3.68-7.64s5.12-2.27,8.48-.22,3.68,7.64,3.68,7.64S65.33,186.41,62,184.36Z" transform="translate(-17 -134.24)" style="fill:#d1a2b2"/><path d="M66.34,175.18c-3.45,1.88-8.46-.63-8.46-0.63s0.6-5.57,4.05-7.45,8.46,0.63,8.46.63S69.79,173.3,66.34,175.18Z" transform="translate(-17 -134.24)" style="fill:#d1a2b2"/><circle cx="56.2" cy="175.99" r="5.75" transform="translate(-138.12 93.59) rotate(-88.59)" style="fill:#d1a2b2"/></g><path d="M60.51,166c0,3.93-4.6,7.12-4.6,7.12s-4.6-3.19-4.6-7.12,4.6-7.12,4.6-7.12S60.51,162.1,60.51,166Z" transform="translate(-17 -134.24)" style="fill:#f3b526"/><path d="M50.4,167.09c3.41,2,3.87,7.55,3.87,7.55s-5.06,2.39-8.47.42-3.87-7.55-3.87-7.55S47,165.12,50.4,167.09Z" transform="translate(-17 -134.24)" style="fill:#f3b526"/><path d="M46.25,176.37c3.41-2,8.47.42,8.47,0.42s-0.46,5.58-3.87,7.55-8.47-.43-8.47-0.43S42.85,178.34,46.25,176.37Z" transform="translate(-17 -134.24)" style="fill:#f3b526"/><path d="M52.22,184.61c0-3.93,4.6-7.12,4.6-7.12s4.6,3.19,4.6,7.12-4.6,7.12-4.6,7.12S52.22,188.54,52.22,184.61Z" transform="translate(-17 -134.24)" style="fill:#f3b526"/><path d="M62.34,183.55c-3.41-2-3.87-7.55-3.87-7.55s5.06-2.39,8.47-.42,3.87,7.55,3.87,7.55S65.75,185.52,62.34,183.55Z" transform="translate(-17 -134.24)" style="fill:#f3b526"/><path d="M66.48,174.26c-3.41,2-8.47-.43-8.47-0.43s0.46-5.58,3.87-7.55,8.47,0.42,8.47.42S69.89,172.3,66.48,174.26Z" transform="translate(-17 -134.24)" style="fill:#f3b526"/><circle cx="39.37" cy="41.08" r="5.75" style="fill:#f3b526"/><g style="mix-blend-mode:multiply"><path d="M63.22,175.14c-2.69,1.73-7.3.74-7.3,0.74s0.55-5.31,3.24-7,6.9,0,6.9,0S65.91,173.4,63.22,175.14Z" transform="translate(-17 -134.24)" style="fill:#f3b526"/><path d="M55.17,168.58c1.73,2.69.74,7.3,0.74,7.3s-5.31-.55-7-3.25,0-6.9,0-6.9S53.44,165.89,55.17,168.58Z" transform="translate(-17 -134.24)" style="fill:#f3b526"/><path d="M48.62,176.63c2.69-1.73,7.3-.74,7.3-0.74s-0.55,5.31-3.25,7-6.9,0-6.9,0S45.93,178.36,48.62,176.63Z" transform="translate(-17 -134.24)" style="fill:#f3b526"/><path d="M56.66,183.18c-1.73-2.69-.74-7.3-0.74-7.3s5.31,0.55,7,3.25,0,6.9,0,6.9S58.4,185.87,56.66,183.18Z" transform="translate(-17 -134.24)" style="fill:#f3b526"/></g><path d="M63.64,174.55c-2.69,1.73-7.3.74-7.3,0.74s0.55-5.31,3.25-7,6.9,0,6.9,0S66.33,172.82,63.64,174.55Z" transform="translate(-17 -134.24)" style="fill:#fdda81"/><path d="M55.59,168c1.73,2.69.74,7.3,0.74,7.3s-5.31-.55-7-3.24,0-6.9,0-6.9S53.86,165.31,55.59,168Z" transform="translate(-17 -134.24)" style="fill:#fdda81"/><path d="M49,176c2.69-1.73,7.3-.74,7.3-0.74s-0.55,5.31-3.25,7-6.9,0-6.9,0S46.34,177.78,49,176Z" transform="translate(-17 -134.24)" style="fill:#fdda81"/><path d="M57.08,182.6c-1.73-2.69-.74-7.3-0.74-7.3s5.31,0.55,7,3.25,0,6.9,0,6.9S58.81,185.29,57.08,182.6Z" transform="translate(-17 -134.24)" style="fill:#fdda81"/><text transform="translate(9.61 29.9)" style="font-size:28.61322021484375px;fill:#231f20;font-family:Beyond The Mountains">Living</text><text transform="translate(0.31 82.21)" style="font-size:11.201339721679688px;fill:#231f20;font-family:Caviar Dreams;font-style:italic">w<tspan x="7.51" y="0">omen</tspan><tspan x="34.95" y="0">’</tspan><tspan x="36.55" y="0">s center</tspan></text><text transform="matrix(1, -0.02, 0.02, 1, 8.97, 67.68)" style="font-size:28.61322021484375px;fill:#231f20;font-family:Beyond The Mountains">Room</text></g></svg>